{
    "asset": {
        "version": "2.0",
        "generator": "Open Asset Import Library (assimp v5.0.639693989)"
    },
    "accessors": [
        {
            "bufferView": 0,
            "byteOffset": 0,
            "componentType": 5126,
            "count": 490332,
            "type": "VEC3",
            "max": [
                77.58101654052735,
                136.34487915039063,
                717.5631103515625
            ],
            "min": [
                -86.55692291259766,
                20.085086822509767,
                499.4749755859375
            ]
        },
        {
            "bufferView": 1,
            "byteOffset": 0,
            "componentType": 5126,
            "count": 490332,
            "type": "VEC3",
            "max": [
                0.9999799728393555,
                0.9999988675117493,
                0.999988853931427
            ],
            "min": [
                -0.9999616146087647,
                -0.9999967813491821,
                -0.9999781250953674
            ]
        },
        {
            "bufferView": 2,
            "byteOffset": 0,
            "componentType": 5126,
            "count": 490332,
            "type": "VEC2",
            "max": [
                0.9976199865341187,
                0.9975000023841858
            ],
            "min": [
                0.002400000113993883,
                0.0025699734687805177
            ]
        },
        {
            "bufferView": 3,
            "byteOffset": 0,
            "componentType": 5125,
            "count": 490338,
            "type": "SCALAR",
            "max": [
                490331
            ],
            "min": [
                0
            ]
        }
    ],
    "buffers": [
        {
            "byteLength": 17651976,
            "uri": "ohxhlzy0ab5r.bin"
        }
    ],
    "bufferViews": [
        {
            "buffer": 0,
            "byteOffset": 0,
            "byteLength": 5883984,
            "target": 34962
        },
        {
            "buffer": 0,
            "byteOffset": 5883984,
            "byteLength": 5883984,
            "target": 34962
        },
        {
            "buffer": 0,
            "byteOffset": 11767968,
            "byteLength": 3922656,
            "target": 34962
        },
        {
            "buffer": 0,
            "byteOffset": 15690624,
            "byteLength": 1961352,
            "target": 34963
        }
    ],
    "materials": [
        {
            "name": "DefaultMaterial",
            "pbrMetallicRoughness": {
                "baseColorFactor": [
                    0.6000000238418579,
                    0.6000000238418579,
                    0.6000000238418579,
                    1.0
                ],
                "metallicFactor": 0.0
            }
        },
        {
            "name": "test_001:defaultMat",
            "pbrMetallicRoughness": {
                "baseColorFactor": [
                    0.6000000238418579,
                    0.6000000238418579,
                    0.6000000238418579,
                    1.0
                ],
                "metallicFactor": 0.0
            }
        }
    ],
    "meshes": [
        {
            "name": "test_001:Group5402 test_001:polySurface1",
            "primitives": [
                {
                    "mode": 4,
                    "material": 1,
                    "indices": 3,
                    "attributes": {
                        "POSITION": 0,
                        "NORMAL": 1,
                        "TEXCOORD_0": 2
                    }
                }
            ]
        }
    ],
    "nodes": [
        {
            "name": "ohxhlzy0ab5r.obj",
            "children": [
                1,
                2
            ]
        },
        {
            "name": "default"
        },
        {
            "name": "test_001:Group5402 test_001:polySurface1",
            "mesh": 0
        }
    ],
    "scenes": [
        {
            "nodes": [
                0
            ]
        }
    ],
    "scene": 0
}