{"accessors" : [{"bufferView" : 0, "byteOffset" : 0, "componentType" : 5125, "count" : 490338, "type" : "SCALAR", "max" : [490337], "min" : [0]}, {"bufferView" : 1, "byteOffset" : 0, "componentType" : 5126, "count" : 490338, "type" : "VEC3", "max" : [77.58101654052734, 136.34487915039062, 717.5631103515625], "min" : [-86.55692291259766, 20.085086822509766, 499.4749755859375]}, {"bufferView" : 1, "byteOffset" : 12, "componentType" : 5126, "count" : 490338, "type" : "VEC2", "max" : [0.9976199865341187, -0.0024999999441206455], "min" : [0.002400000113993883, -0.9974300265312195]}, {"bufferView" : 1, "byteOffset" : 20, "componentType" : 5126, "count" : 490338, "type" : "VEC3", "max" : [0.9999842643737793, 1.0000032186508179, 0.9999932050704956], "min" : [-0.9999659657478333, -1.0000011920928955, -0.9999824166297913]}], "asset" : {"generator" : "Aspose.3D 21.1", "version" : "2.0"}, "buffers" : [{"uri" : "buffer.bin", "byteLength" : 17652176}], "bufferViews" : [{"buffer" : 0, "byteOffset" : 0, "byteLength" : 1961352, "target" : 34963}, {"buffer" : 0, "byteOffset" : 1961356, "byteLength" : 15690816, "byteStride" : 32, "target" : 34962}], "meshes" : [{"primitives" : [{"attributes" : {"POSITION" : 1, "TEXCOORD_0" : 2, "NORMAL" : 3}, "indices" : 0, "mode" : 4}]}], "nodes" : [{"mesh" : 0, "name" : "test_001:Group5402 test_001:polySurface1"}], "scene" : 0, "scenes" : [{"nodes" : [0]}]}